PathFileType	4	(X/Y/Z)	Patient4_TMGait_0pt5_02_right_15.trc.trc
DataRate	CameraRate	NumFrames	NumMarkers	Units	OrigDataRate	OrigDataStartFrame	OrigNumFrames
77.348066298343	77.348066298343	4	33	mm	77.348066298343	89	       141
Frame#	Time	Sacral			L.Shoulder			Chest			R.Shoulder			Neck			R.ASIS			L.ASIS			R.Thigh.Superior			R.Thigh.Lateral			R.Thigh.Inferior			R.Patella			L.Thigh.Superior			L.Thigh.Lateral			L.Thigh.Inferior			L.Patella			L.Shank.Superior			L.Shank.Lateral			L.Shank.Inferior			R.Shank.Superior			R.Shank.Lateral			R.Shank.Inferior			R.Heel			R.Midfoot.Superior			R.Midfoot.Lateral			R.Toe			L.Heel			L.Midfoot.Lateral			L.Midfoot.Superior			L.Toe			L.Elbow			L.Wrist			R.Elbow			R.Wrist			
		X1	Y1	Z1	X2	Y2	Z2	X3	Y3	Z3	X4	Y4	Z4	X5	Y5	Z5	X6	Y6	Z6	X7	Y7	Z7	X8	Y8	Z8	X9	Y9	Z9	X10	Y10	Z10	X11	Y11	Z11	X12	Y12	Z12	X13	Y13	Z13	X14	Y14	Z14	X15	Y15	Z15	X16	Y16	Z16	X17	Y17	Z17	X18	Y18	Z18	X19	Y19	Z19	X20	Y20	Z20	X21	Y21	Z21	X22	Y22	Z22	X23	Y23	Z23	X24	Y24	Z24	X25	Y25	Z25	X26	Y26	Z26	X27	Y27	Z27	X28	Y28	Z28	X29	Y29	Z29	X30	Y30	Z30	X31	Y31	Z31	X32	Y32	Z32	X33	Y33	Z33	

89	20.757714285714	591.639243433770	1009.585768145716	507.696288170375	758.126042532867	1437.446334741299	329.055210602171	872.686529326808	1363.070535004399	480.204575854651	802.944959933723	1434.580412361181	661.941976956844	767.814600620201	1494.212223177336	481.290113632017	818.993458645333	938.389260830706	617.046299022456	799.522220989947	958.023697771358	343.399287713350	828.891154306144	726.546513094329	597.385832240806	731.391168786949	629.749187419870	660.080480508182	802.096873582341	562.036190951291	586.854416019998	785.441531687251	461.389201247200	602.693261856421	865.533565940685	762.473956595478	378.620880511202	795.058665379165	636.318438518171	316.350375670421	890.292653065550	568.963905733072	379.022211469961	899.979486006308	496.226798348404	386.836248074035	873.994836506800	422.197761704142	378.949584823774	788.306019121167	305.609223550700	326.401349086249	842.823017205192	195.116434016043	395.315443197647	720.048336001112	389.740010899652	606.896903466828	610.098745171098	325.753233868743	665.672131538414	615.135434727629	218.235115242952	610.577734852721	429.229930689860	101.884840978108	579.020098556275	606.520612140424	104.030163762659	616.876267880128	504.840530763414	65.120995482966	651.502770229311	705.820998016596	36.028034547477	643.113101469123	719.273668206892	37.388359671833	434.578334849324	793.507471175756	35.535083875997	354.245435679338	876.135436798765	96.815253937252	381.318394286485	1004.745696534561	46.348788032017	353.078099140355	674.964620679696	1091.018151827051	215.157967982106	750.658651367254	839.605508781102	206.743874075229	866.354408503259	1095.894709005698	778.776075011049	1109.702418215215	1045.803724869226	726.045832872783	
90	20.770642857143	591.934474369406	1009.828910078387	504.183270055261	759.620901974364	1437.660396528560	325.722815716503	873.207524269652	1363.464381673333	477.662626417636	802.381774518323	1435.156514391657	658.877414988155	768.192490291450	1494.596284122382	477.959291438992	818.858592437487	938.807872940116	614.581513351820	800.606624809290	958.269236055422	340.863519443914	832.780915889960	727.659424335256	595.538760871918	737.456167614255	629.442554230083	658.436902243388	810.037814018410	562.481573908716	585.638386470179	794.341537091480	460.349855353172	602.742763985864	865.365402794963	761.435274653538	375.843582813652	793.304427639800	635.911438285353	314.446761340052	887.675787931305	567.871347614258	377.487952056857	896.692566330069	495.332807961948	385.805705878355	870.304545161223	421.373646400833	378.057383313262	784.186587459460	305.168799989556	325.549995647033	837.427067213825	194.599961344881	395.118086549128	726.748258993309	389.720349049967	606.798551382730	614.579737629284	329.311435704853	665.219825273699	616.793044053956	221.385393837201	610.977390635492	427.447440544638	112.039511666910	579.550344146222	604.294757881499	105.734378278587	617.354984732022	501.138974730174	71.456200080658	651.774656981306	699.608651572769	35.404126361247	643.151629456937	712.766507185587	37.346401323660	434.534333978925	787.000523515622	35.461707043093	354.178846995759	869.752540102341	96.579464518535	381.369235753335	998.361323693113	45.782759380229	353.078787637773	681.203123919882	1090.303165052157	210.361015377038	767.332753649559	842.160040031254	201.738200124198	858.459287055870	1094.827760435951	776.021014087865	1099.436964988086	1029.549480902230	726.200096870714	
91	20.783571428571	592.039440763992	1010.003403226265	500.737654862392	761.228129117811	1437.784987733137	322.470442131437	873.724489099456	1363.698564817293	475.242819642411	801.756477629257	1435.601526183569	655.900971732881	768.622012233904	1494.885298345334	474.713833313870	818.551788371713	939.130781665395	612.174401214908	801.539131613639	958.440442633016	338.403178462349	837.062483112423	729.010649804912	593.645124907861	744.299706096529	629.190386693446	656.836079052766	818.780999934075	563.176245184211	584.334024877232	804.153733751565	459.586580668471	602.594689807267	865.001327733874	760.382214421030	373.280676676725	791.569367341704	635.578061595406	312.527393910351	884.949888192402	566.830400654681	376.078603856245	893.269815866085	494.432079729154	384.766271070312	866.501612949952	420.561212567125	377.127436102970	779.981497671143	304.716377957533	324.656765867523	832.006115255477	194.101454880044	394.876425221332	734.430266350655	389.908771681548	606.576001631884	620.127243198262	333.263012435960	664.716249630774	619.351279697031	225.036032874952	611.291971207556	426.752793147299	123.504397100245	579.962013226383	602.708839064898	108.036316862670	617.896116375790	498.107213302950	78.947600332213	651.992167300316	693.459250713115	34.591787977586	643.284936067205	706.269813057689	37.318409834482	434.473506528479	780.509619259542	35.397173396739	354.101311995615	863.384425111540	96.351840231562	381.401713469815	991.989268264382	45.219540349577	353.081963691995	687.770112072754	1089.644666434267	205.453318736022	784.397526599078	845.303026001897	196.798933041439	850.199441992846	1093.690748952082	773.107924847499	1087.756114728448	1012.937065277911	726.505956459530	
92	20.796500000000	591.957072314247	1010.096970275610	497.381209158190	762.899333943714	1437.813180798622	319.335726985664	874.214904472340	1363.772659612810	472.968540566412	801.060397052269	1435.910052036620	653.045793043849	769.096108925757	1495.076048159103	471.589420362089	818.078072303325	939.359684146169	609.830299914977	802.315547968115	958.546747943034	336.035712885327	841.642561419972	730.638833875954	591.663105497407	751.824777776850	629.064763872912	655.257183303936	828.177408136738	564.189030635814	582.902109400400	814.745817419369	459.180802457442	602.192074969633	864.463287212218	759.349409650484	370.916222792392	789.836238271995	635.307686868023	310.613813707098	882.165263930669	565.843026203721	374.741619540417	889.776749525969	493.532800713751	383.703388015188	862.639143121796	419.761681515130	376.160142166443	775.714382921270	304.269755600384	323.730853725625	826.574188323955	193.622977688109	394.589422331577	742.981498072551	390.364978970615	606.171653813496	626.668956055182	337.617594037391	664.122330040834	622.782571139677	229.207173999910	611.473389973551	427.236748872675	136.186690216718	580.197245841870	601.797337106322	111.021893625722	618.459738421626	495.844717734311	87.594429643294	652.113746791013	687.450481889802	33.610633984258	643.517314109254	699.786360707602	37.307443959252	434.394841931988	774.035229134121	35.344353888557	354.012407325793	857.026796238858	96.141394988030	381.409680574023	985.625747381363	44.680013887822	353.077331221968	694.684651066650	1089.033547175392	200.473840265367	801.785957844201	849.031245087259	191.960608526066	841.613603829319	1092.489830780806	770.070825842220	1074.582046693504	996.058543652909	726.976659447436	
